<?xml version="1.0" encoding="UTF-8"?>
<svg width="15px" height="15px" viewBox="0 0 15 15" version="1.1" xmlns="http://www.w3.org/2000/svg" xmlns:xlink="http://www.w3.org/1999/xlink">
    <!-- Generator: Sketch 49 (51002) - http://www.bohemiancoding.com/sketch -->
    <title>call-answer</title>
    <desc>Created with Sketch.</desc>
    <defs></defs>
    <g id="Symbols" stroke="none" stroke-width="1" fill="none" fill-rule="evenodd">
        <g id="Input-phone-active" transform="translate(-15.000000, -15.000000)" fill="#888888" fill-rule="nonzero">
            <g id="call-answer">
                <g transform="translate(15.000000, 15.000000)">
                    <path d="M14.6637274,11.8642772 L12.3472113,9.54225316 C11.8858043,9.08165786 11.1217052,9.09565194 10.6442241,9.57438772 L9.47715335,10.7438437 C9.40341958,10.703114 9.32710017,10.6605703 9.24685921,10.615435 C8.50986624,10.2061514 7.50116582,9.64517876 6.4397184,8.58054883 C5.37512511,7.51367293 4.81490358,6.50113207 4.40529545,5.76199409 C4.3620722,5.68368771 4.32065891,5.60818878 4.27976273,5.53649071 L5.06303862,4.75260622 L5.44812628,4.36617091 C5.92634,3.88674406 5.93952676,3.12112963 5.47919703,2.65919538 L3.162681,0.336912217 C2.70235128,-0.124374152 1.93790745,-0.110380071 1.45969373,0.369046773 L0.806820179,1.0271573 C0.605743743,1.32487705 0.422809866,1.64777751 0.286676034,1.99598825 C0.161186411,2.32744065 0.0830570541,2.64373279 0.047332158,2.9606728 C-0.258548798,5.50223976 0.900247893,7.82504123 4.04507301,10.9770352 C8.39217662,15.3336863 11.8953711,15.0045662 12.0465017,14.9884989 C12.3756534,14.949065 12.6911012,14.8702403 13.0116772,14.7454597 C13.3560841,14.6106155 13.6780391,14.4275263 13.9572018,14.2085881 L14.6328721,13.5721597 C15.1100947,13.0928193 15.1238416,12.3269457 14.6637274,11.8642772 Z" id="Shape"></path>
                </g>
            </g>
        </g>
    </g>
</svg>