<?xml version="1.0" encoding="UTF-8"?>
<svg width="16px" height="11px" viewBox="0 0 16 11" version="1.1" xmlns="http://www.w3.org/2000/svg" xmlns:xlink="http://www.w3.org/1999/xlink">
    <!-- Generator: Sketch 49 (51002) - http://www.bohemiancoding.com/sketch -->
    <title>Shape</title>
    <desc>Created with Sketch.</desc>
    <defs></defs>
    <g id="Symbols" stroke="none" stroke-width="1" fill="none" fill-rule="evenodd">
        <g id="Input-mail" transform="translate(-14.000000, -17.000000)" fill="#888888" fill-rule="nonzero">
            <g id="email-filled-closed-envelope">
                <g transform="translate(14.000000, 17.000000)">
                    <path d="M8.02007843,6.59696292 L8.02350327,6.59696292 C8.14415686,6.59696292 8.26339869,6.56097489 8.35986928,6.49544927 L8.38603922,6.47816749 C8.39173856,6.47435099 8.39769935,6.47088388 8.40368627,6.46677173 L8.70847059,6.20754505 L15.9832157,0.0359880276 C15.9681569,0.0146209761 15.9425098,0 15.9151895,0 L0.0845228758,0 C0.0648888889,0 0.0466666667,0.00731048806 0.0321568627,0.0195931831 L7.64326797,6.46878749 C7.73918954,6.55043919 7.87605229,6.59696292 8.02007843,6.59696292 Z M0,0.874490257 L0,10.0225447 L5.45228758,5.49458433 L0,0.874490257 Z M10.5534118,5.5253045 L16,10.024883 L16,0.904914788 L10.5534118,5.5253045 Z M8.82172549,6.99396005 C8.60460131,7.17709853 8.32060131,7.27804777 8.02235294,7.27804777 C7.72298039,7.27804777 7.43924183,7.17768982 7.22269281,6.9954114 L5.97393464,5.93662696 L0,10.897035 L0,10.9128117 C0,10.9599267 0.0392679739,11 0.0856470588,11 L15.9154771,11 C15.9609935,11 15.9999739,10.9599267 15.9999739,10.912516 L15.9999739,10.8978951 L10.0311895,5.96766966 L8.82172549,6.99396005 Z" id="Shape"></path>
                </g>
            </g>
        </g>
    </g>
</svg>