<?xml version="1.0" encoding="UTF-8"?>
<!DOCTYPE svg PUBLIC "-//W3C//DTD SVG 1.0//EN" "http://www.w3.org/TR/2001/REC-SVG-20010904/DTD/svg10.dtd">
<!-- Creator: CorelDRAW X7 -->
<svg xmlns="http://www.w3.org/2000/svg" xml:space="preserve" width="19px" height="19px" version="1.0" style="shape-rendering:geometricPrecision; text-rendering:geometricPrecision; image-rendering:optimizeQuality; fill-rule:evenodd; clip-rule:evenodd"
viewBox="0 0 2997 2997"
 xmlns:xlink="http://www.w3.org/1999/xlink">
 <defs>
  <style type="text/css">
   <![CDATA[
    .fil2 {fill:#5F6EDC}
    .fil0 {fill:white}
    .fil1 {fill:#5F6EDC;fill-rule:nonzero}
   ]]>
  </style>
 </defs>
 <g id="Layer_x0020_1">
  <metadata id="CorelCorpID_0Corel-Layer"/>
  <g id="_2808820633904">
   <rect class="fil0" x="158" y="158" width="2682" height="2682" rx="1341" ry="1341"/>
   <path class="fil1" d="M1499 0c412,0 787,169 1058,440 272,272 440,646 440,1059 0,412 -168,787 -440,1058 -271,272 -646,440 -1058,440 -413,0 -787,-168 -1059,-440 -271,-271 -440,-646 -440,-1058 0,-413 169,-787 440,-1059 272,-271 646,-440 1059,-440zm0 316c-326,0 -621,133 -836,347 -214,215 -347,510 -347,836 0,325 133,621 347,835 215,215 510,348 836,348 325,0 621,-133 835,-348 215,-214 348,-510 348,-835 0,-326 -133,-621 -348,-836 -214,-214 -510,-347 -835,-347z"/>
   <rect class="fil2" x="946" y="946" width="1104" height="1104" rx="552" ry="552"/>
   <path class="fil1" d="M1499 789c195,0 372,80 500,208l1 1c129,128 208,306 208,501 0,195 -79,372 -208,500l-1 1c-128,129 -305,208 -500,208 -195,0 -373,-79 -501,-208l-1 -1c-128,-128 -208,-305 -208,-500 0,-195 80,-373 208,-501l1 -1c128,-128 306,-208 501,-208zm0 315c-109,0 -207,44 -279,116l0 0c-72,72 -116,170 -116,279 0,108 44,207 116,278l0 1c72,71 170,115 279,115 108,0 207,-44 278,-115l1 -1c71,-71 115,-170 115,-278 0,-109 -44,-207 -115,-279l-1 0c-71,-72 -170,-116 -278,-116z"/>
  </g>
 </g>
</svg>
