<?xml version="1.0" encoding="UTF-8"?>
<!DOCTYPE svg PUBLIC "-//W3C//DTD SVG 1.0//EN" "http://www.w3.org/TR/2001/REC-SVG-20010904/DTD/svg10.dtd">
<!-- Creator: CorelDRAW X7 -->
<svg xmlns="http://www.w3.org/2000/svg" xml:space="preserve" width="18px" height="18px" version="1.0" style="shape-rendering:geometricPrecision; text-rendering:geometricPrecision; image-rendering:optimizeQuality; fill-rule:evenodd; clip-rule:evenodd"
viewBox="0 0 2690 2690"
 xmlns:xlink="http://www.w3.org/1999/xlink">
 <defs>
  <style type="text/css">
   <![CDATA[
    .fil0 {fill:white}
    .fil1 {fill:#727679;fill-rule:nonzero}
   ]]>
  </style>
 </defs>
 <g id="Layer_x0020_1">
  <metadata id="CorelCorpID_0Corel-Layer"/>
  <rect class="fil0" x="149" y="149" width="2391" height="2391" rx="299" ry="299"/>
  <path class="fil1" d="M448 2391l1794 0c41,0 78,-17 105,-43l1 -1c26,-27 43,-64 43,-105l0 -1794c0,-41 -17,-78 -44,-105 -27,-27 -64,-44 -105,-44l-1794 0c-41,0 -78,17 -105,43l-1 1c-26,27 -43,64 -43,105l0 1794c0,41 17,78 44,105 27,27 64,44 105,44zm1794 299l-1794 0c-123,0 -235,-50 -316,-132 -82,-81 -132,-193 -132,-316l0 -1794c0,-123 50,-235 132,-316l0 0c81,-82 193,-132 316,-132l1794 0c123,0 235,50 316,132 82,81 132,193 132,316l0 1794c0,123 -50,235 -132,316l0 0c-81,82 -193,132 -316,132z"/>
 </g>
</svg>
