<?xml version="1.0" encoding="UTF-8"?>
<svg width="15px" height="7px" viewBox="0 0 15 7" version="1.1" xmlns="http://www.w3.org/2000/svg" xmlns:xlink="http://www.w3.org/1999/xlink">
    <!-- Generator: Sketch 49 (51002) - http://www.bohemiancoding.com/sketch -->
    <title>ruler</title>
    <desc>Created with Sketch.</desc>
    <defs></defs>
    <g id="Symbols" stroke="none" stroke-width="1" fill="none" fill-rule="evenodd">
        <g id="Small-Input-hover" transform="translate(-10.000000, -12.000000)" fill="#888888" fill-rule="nonzero">
            <g id="Small-Input-Active">
                <g id="ruler" transform="translate(10.000000, 12.000000)">
                    <path d="M14.7652003,7 L0.234331063,7 C0.171999,7 0.11247891,6.97567532 0.0684246704,6.93299239 C0.0243704305,6.89030947 0,6.83156307 0,6.7705219 L0.000937324252,0.229478101 C0.000937324252,0.102806189 0.10591764,0 0.235268387,0 L14.7656689,0 C14.828001,0 14.8875211,0.0243246787 14.9315753,0.0670076056 C14.9756296,0.109690532 15,0.168436926 15,0.229478101 L14.9995313,6.7705219 C14.9995313,6.89719381 14.894551,7 14.7652003,7 Z M0.468662126,6.5410438 L14.5308692,6.5410438 L14.5313379,0.458956202 L0.46959945,0.458956202 L0.468662126,6.5410438 Z" id="Shape"></path>
                    <g id="Group" transform="translate(3.000000, 0.000000)">
                        <path d="M9.59405,1.824375 C9.44225,1.824375 9.31905,1.740375 9.31905,1.636875 L9.31905,0.3285 C9.31905,0.225 9.44225,0.141 9.59405,0.141 C9.74585,0.141 9.86905,0.225 9.86905,0.3285 L9.86905,1.636875 C9.86905,1.74075 9.74585,1.824375 9.59405,1.824375 Z" id="Shape"></path>
                        <path d="M7.2986,2.663625 C7.1468,2.663625 7.0236,2.579625 7.0236,2.476125 L7.0236,0.3285 C7.0236,0.225 7.1468,0.141 7.2986,0.141 C7.4504,0.141 7.5736,0.225 7.5736,0.3285 L7.5736,2.476125 C7.5736,2.579625 7.45095,2.663625 7.2986,2.663625 Z" id="Shape"></path>
                        <path d="M5.0018,1.824375 C4.85,1.824375 4.7268,1.740375 4.7268,1.636875 L4.7268,0.3285 C4.7268,0.225 4.85,0.141 5.0018,0.141 C5.1536,0.141 5.2768,0.225 5.2768,0.3285 L5.2768,1.636875 C5.2768,1.74075 5.1536,1.824375 5.0018,1.824375 Z" id="Shape"></path>
                        <path d="M2.70455,2.663625 C2.55275,2.663625 2.42955,2.579625 2.42955,2.476125 L2.42955,0.3285 C2.42955,0.225 2.55275,0.141 2.70455,0.141 C2.85635,0.141 2.97955,0.225 2.97955,0.3285 L2.97955,2.476125 C2.97955,2.579625 2.8569,2.663625 2.70455,2.663625 Z" id="Shape"></path>
                        <path d="M0.40955,1.824 C0.25775,1.824 0.13455,1.74 0.13455,1.6365 L0.13455,0.3285 C0.13455,0.225 0.25775,0.141 0.40955,0.141 C0.56135,0.141 0.68455,0.225 0.68455,0.3285 L0.68455,1.6365 C0.68455,1.740375 0.56135,1.824 0.40955,1.824 Z" id="Shape"></path>
                    </g>
                </g>
            </g>
        </g>
    </g>
</svg>